<svg xmlns="http://www.w3.org/2000/svg" viewBox="0 0 256 256">
  <defs>
    <linearGradient id="grad" x1="0%" y1="0%" x2="100%" y2="100%">
      <stop offset="0%" style="stop-color:#8b5cf6;stop-opacity:1"/>
      <stop offset="100%" style="stop-color:#06b6d4;stop-opacity:1"/>
    </linearGradient>
  </defs>
  <rect width="256" height="256" fill="#1a1a2e"/>
  <path d="M 80 100 L 60 100 C 45 100 35 110 35 125 L 35 145 C 35 160 45 170 60 170 L 80 170 C 90 170 100 160 100 150 L 100 120 C 100 110 90 100 80 100 Z" fill="url(#grad)"/>
  <path d="M 176 100 L 196 100 C 211 100 221 110 221 125 L 221 145 C 221 160 211 170 196 170 L 176 170 C 166 170 156 160 156 150 L 156 120 C 156 110 166 100 176 100 Z" fill="url(#grad)"/>
  <rect x="100" y="110" width="56" height="50" rx="8" fill="url(#grad)"/>
  <circle cx="75" cy="135" r="8" fill="#1a1a2e"/>
  <circle cx="181" cy="125" r="8" fill="#1a1a2e"/>
  <circle cx="181" cy="145" r="8" fill="#1a1a2e"/>
  <rect x="115" y="125" width="26" height="6" rx="3" fill="#1a1a2e"/>
  <rect x="125" y="115" width="6" height="26" rx="3" fill="#1a1a2e"/>
</svg>